# xmcd
#
# Track frame offsets: 
#        150
#        14607
#        32340
#
# Disc length: 690 seconds
#
# Revision: 0
# Processed by: cddbd v1.4PL0 Copyright (c) Steve Scherf et al.
# Submitted via: ExactAudioCopy v0.95a3
#
DISCID=1802b003
DTITLE=T'ee - T'ee - Love Me Tender
DYEAR=1998
DGENRE=R&B
TTITLE0=T'ee - Love Me Tender (Unplugged)
TTITLE1=T'ee - Love Me Tender (Benztown Mixdown)
TTITLE2=T'ee - Love Me Tender (Benztown Club Mix)
EXTD=
EXTT0=
EXTT1=
EXTT2=
PLAYORDER=
